HIERARCHY
ROOT Hips
{
  OFFSET 5.72205e-005 65.662 3.42586
  CHANNELS 6 Xposition Yposition Zposition Zrotation Xrotation Yrotation
  JOINT Chest
  {
    OFFSET 0 8.7983 -4.7612
    CHANNELS 6 Xposition Yposition Zposition Zrotation Xrotation Yrotation
    JOINT Chest2
    {
      OFFSET 0 8.0291 0.4195
      CHANNELS 6 Xposition Yposition Zposition Zrotation Xrotation Yrotation
      JOINT Chest3
      {
        OFFSET 0 9.9351 -2.2114
        CHANNELS 6 Xposition Yposition Zposition Zrotation Xrotation Yrotation
        JOINT Neck
        {
          OFFSET 0 22.3885 -0.4656
          CHANNELS 6 Xposition Yposition Zposition Zrotation Xrotation Yrotation
          JOINT Head
          {
            OFFSET -0.0001 12.643 3.4389
            CHANNELS 6 Xposition Yposition Zposition Zrotation Xrotation Yrotation
            End Site
            {
              OFFSET 0.0001 17.6655 0.5274
            }
          }
        }
        JOINT LeftCollar
        {
          OFFSET 2.2603 21.606 7.4023
          CHANNELS 6 Xposition Yposition Zposition Zrotation Xrotation Yrotation
          JOINT LeftShoulder
          {
            OFFSET 13.5163 -1.1332 -5.0146
            CHANNELS 6 Xposition Yposition Zposition Zrotation Xrotation Yrotation
            JOINT LeftElbow
            {
              OFFSET -0.0995 -28.05 -0.2431
              CHANNELS 6 Xposition Yposition Zposition Zrotation Xrotation Yrotation
              JOINT LeftWrist
              {
                OFFSET 0.0679 -23.3996 -0.1402
                CHANNELS 6 Xposition Yposition Zposition Zrotation Xrotation Yrotation
                JOINT LeftFinger1
                {
                  OFFSET 0.7932 -9.069 2.5189
                  CHANNELS 6 Xposition Yposition Zposition Zrotation Xrotation Yrotation
                  JOINT LeftFinger11
                  {
                    OFFSET -0.8272 -3.3923 0.5977
                    CHANNELS 6 Xposition Yposition Zposition Zrotation Xrotation Yrotation
                    JOINT LeftFinger12
                    {
                      OFFSET -0.5649 -2.3158 0.4082
                      CHANNELS 6 Xposition Yposition Zposition Zrotation Xrotation Yrotation
                      End Site
                      {
                        OFFSET -0.4919 -1.6479 0.2673
                      }
                    }
                  }
                }
                JOINT LeftFinger2
                {
                  OFFSET 0.9159 -9.2044 0.2193
                  CHANNELS 6 Xposition Yposition Zposition Zrotation Xrotation Yrotation
                  JOINT LeftFinger21
                  {
                    OFFSET 0.0117 -4.1944 -0.0248
                    CHANNELS 6 Xposition Yposition Zposition Zrotation Xrotation Yrotation
                    JOINT LeftFinger22
                    {
                      OFFSET 0.0071 -2.3249 -0.0142
                      CHANNELS 6 Xposition Yposition Zposition Zrotation Xrotation Yrotation
                      End Site
                      {
                        OFFSET -0.1475 -2.0882 0.0028
                      }
                    }
                  }
                }
                JOINT LeftFinger3
                {
                  OFFSET 0.6113 -8.7231 -2.0637
                  CHANNELS 6 Xposition Yposition Zposition Zrotation Xrotation Yrotation
                  JOINT LeftFinger31
                  {
                    OFFSET -0.1927 -3.8059 -0.2383
                    CHANNELS 6 Xposition Yposition Zposition Zrotation Xrotation Yrotation
                    JOINT LeftFinger32
                    {
                      OFFSET -0.1091 -2.1688 -0.1362
                      CHANNELS 6 Xposition Yposition Zposition Zrotation Xrotation Yrotation
                      End Site
                      {
                        OFFSET -0.2358 -1.9176 -0.0906
                      }
                    }
                  }
                }
                JOINT LeftFinger4
                {
                  OFFSET -0.6151 -8.0947 -3.5641
                  CHANNELS 6 Xposition Yposition Zposition Zrotation Xrotation Yrotation
                  JOINT LeftFinger41
                  {
                    OFFSET -0.4882 -2.341 -0.6462
                    CHANNELS 6 Xposition Yposition Zposition Zrotation Xrotation Yrotation
                    JOINT LeftFinger42
                    {
                      OFFSET -0.3575 -1.7167 -0.4742
                      CHANNELS 6 Xposition Yposition Zposition Zrotation Xrotation Yrotation
                      End Site
                      {
                        OFFSET -0.4187 -1.5237 -0.3496
                      }
                    }
                  }
                }
                JOINT LeftFinger0
                {
                  OFFSET -1.42 -1.8761 1.4223
                  CHANNELS 6 Xposition Yposition Zposition Zrotation Xrotation Yrotation
                  JOINT LeftFinger01
                  {
                    OFFSET -1.1471 -3.4929 2.6334
                    CHANNELS 6 Xposition Yposition Zposition Zrotation Xrotation Yrotation
                    JOINT LeftFinger02
                    {
                      OFFSET -0.823 -2.3 1.6571
                      CHANNELS 6 Xposition Yposition Zposition Zrotation Xrotation Yrotation
                      End Site
                      {
                        OFFSET -0.5822 -1.6914 1.1582
                      }
                    }
                  }
                }
              }
            }
          }
        }
        JOINT RightCollar
        {
          OFFSET -2.2603 21.606 7.4023
          CHANNELS 6 Xposition Yposition Zposition Zrotation Xrotation Yrotation
          JOINT RightShoulder
          {
            OFFSET -13.5187 -1.1334 -5.0155
            CHANNELS 6 Xposition Yposition Zposition Zrotation Xrotation Yrotation
            JOINT RightElbow
            {
              OFFSET 0.0994 -28.0499 -0.2431
              CHANNELS 6 Xposition Yposition Zposition Zrotation Xrotation Yrotation
              JOINT RightWrist
              {
                OFFSET -0.0679 -23.3996 -0.1402
                CHANNELS 6 Xposition Yposition Zposition Zrotation Xrotation Yrotation
                JOINT RightFinger1
                {
                  OFFSET -0.7932 -9.0691 2.5189
                  CHANNELS 6 Xposition Yposition Zposition Zrotation Xrotation Yrotation
                  JOINT RightFinger11
                  {
                    OFFSET 0.8272 -3.3923 0.5977
                    CHANNELS 6 Xposition Yposition Zposition Zrotation Xrotation Yrotation
                    JOINT RightFinger12
                    {
                      OFFSET 0.565 -2.3158 0.4082
                      CHANNELS 6 Xposition Yposition Zposition Zrotation Xrotation Yrotation
                      End Site
                      {
                        OFFSET 0.4919 -1.6479 0.2673
                      }
                    }
                  }
                }
                JOINT RightFinger2
                {
                  OFFSET -0.916 -9.2044 0.2193
                  CHANNELS 6 Xposition Yposition Zposition Zrotation Xrotation Yrotation
                  JOINT RightFinger21
                  {
                    OFFSET -0.0117 -4.1944 -0.0248
                    CHANNELS 6 Xposition Yposition Zposition Zrotation Xrotation Yrotation
                    JOINT RightFinger22
                    {
                      OFFSET -0.0071 -2.3249 -0.0142
                      CHANNELS 6 Xposition Yposition Zposition Zrotation Xrotation Yrotation
                      End Site
                      {
                        OFFSET 0.1475 -2.0882 0.0028
                      }
                    }
                  }
                }
                JOINT RightFinger3
                {
                  OFFSET -0.6113 -8.7231 -2.0637
                  CHANNELS 6 Xposition Yposition Zposition Zrotation Xrotation Yrotation
                  JOINT RightFinger31
                  {
                    OFFSET 0.1927 -3.8059 -0.2383
                    CHANNELS 6 Xposition Yposition Zposition Zrotation Xrotation Yrotation
                    JOINT RightFinger32
                    {
                      OFFSET 0.1091 -2.1688 -0.1362
                      CHANNELS 6 Xposition Yposition Zposition Zrotation Xrotation Yrotation
                      End Site
                      {
                        OFFSET 0.2358 -1.9176 -0.0906
                      }
                    }
                  }
                }
                JOINT RightFinger4
                {
                  OFFSET 0.6151 -8.0947 -3.564
                  CHANNELS 6 Xposition Yposition Zposition Zrotation Xrotation Yrotation
                  JOINT RightFinger41
                  {
                    OFFSET 0.4882 -2.341 -0.6462
                    CHANNELS 6 Xposition Yposition Zposition Zrotation Xrotation Yrotation
                    JOINT RightFinger42
                    {
                      OFFSET 0.3574 -1.7166 -0.4742
                      CHANNELS 6 Xposition Yposition Zposition Zrotation Xrotation Yrotation
                      End Site
                      {
                        OFFSET 0.4187 -1.5237 -0.3496
                      }
                    }
                  }
                }
                JOINT RightFinger0
                {
                  OFFSET 1.4199 -1.8761 1.4221
                  CHANNELS 6 Xposition Yposition Zposition Zrotation Xrotation Yrotation
                  JOINT RightFinger01
                  {
                    OFFSET 1.1472 -3.4929 2.6336
                    CHANNELS 6 Xposition Yposition Zposition Zrotation Xrotation Yrotation
                    JOINT RightFinger02
                    {
                      OFFSET 0.8229 -2.3 1.6571
                      CHANNELS 6 Xposition Yposition Zposition Zrotation Xrotation Yrotation
                      End Site
                      {
                        OFFSET 0.5822 -1.6914 1.1582
                      }
                    }
                  }
                }
              }
            }
          }
        }
      }
    }
  }
  JOINT RightHip
  {
    OFFSET -9.412 3.9771 -0.7758
    CHANNELS 6 Xposition Yposition Zposition Zrotation Xrotation Yrotation
    JOINT RightKnee
    {
      OFFSET -0.7531 -40.938 0
      CHANNELS 6 Xposition Yposition Zposition Zrotation Xrotation Yrotation
      JOINT RightAnkle
      {
        OFFSET 0 -40.1986 0
        CHANNELS 6 Xposition Yposition Zposition Zrotation Xrotation Yrotation
        JOINT RightToe
        {
          OFFSET 0 -4.4182 9.239
          CHANNELS 6 Xposition Yposition Zposition Zrotation Xrotation Yrotation
          End Site
          {
            OFFSET 0 0 6.1981
          }
        }
      }
    }
  }
  JOINT LeftHip
  {
    OFFSET 9.4119 3.9773 -0.7758
    CHANNELS 6 Xposition Yposition Zposition Zrotation Xrotation Yrotation
    JOINT LeftKnee
    {
      OFFSET 0.7532 -40.9383 0
      CHANNELS 6 Xposition Yposition Zposition Zrotation Xrotation Yrotation
      JOINT LeftAnkle
      {
        OFFSET 0 -40.1986 0
        CHANNELS 6 Xposition Yposition Zposition Zrotation Xrotation Yrotation
        JOINT LeftToe
        {
          OFFSET 0 -4.4182 9.239
          CHANNELS 6 Xposition Yposition Zposition Zrotation Xrotation Yrotation
          End Site
          {
            OFFSET 0 0 6.1981
          }
        }
      }
    }
  }
}
MOTION
Frames:	4
Frame Time:	0.0333333
39.8401 14.0094 21.7419 9.89299e-009 65.274 9.54083e-007 0 8.7983 -4.7612 -0.327331 16.2481 -0.0873398 -7.10543e-015 8.0291 0.4195 -0.670955 32.4966 -0.0781671 0 9.9351 -2.2114 -0.670951 32.4964 -0.0781682 -7.10543e-015 22.3885 -0.4656 -11.0912 -29.7339 40.6874 -0.0001 12.643 3.4389 15.373 -18.8012 23.5729 2.2603 21.606 7.4023 -7.16834 -6.03346 -17.091 13.5163 -1.1332 -5.0146 75.1336 -64.2339 76.8037 -0.0995 -28.05 -0.2431 -51.1814 -9.57808 -90.0355 0.0679 -23.3996 -0.1402 -72.0597 -22.7052 5.97686 0.7932 -9.069 2.5189 4.60894e-006 -1.03229e-006 -2.06929e-006 -0.8272 -3.3923 0.5977 -8.27351e-006 3.78385e-006 -1.12095e-006 -0.5649 -2.3158 0.4082 8.7506e-006 -2.22923e-006 3.46876e-006 0.9159 -9.2044 0.2193 4.60894e-006 -1.03229e-006 -2.06929e-006 0.0117 -4.1944 -0.0248 -0.012844 0.00233063 9.11736e-005 0.0071 -2.3249 -0.0142 -8.5172e-006 1.36845e-006 -7.27277e-006 0.6113 -8.7231 -2.0637 4.60894e-006 -1.03229e-006 -2.06929e-006 -0.1927 -3.8059 -0.2383 -0.0160512 0.00299339 0.000858459 -0.1091 -2.1688 -0.1362 7.10657e-007 -4.60079e-007 -1.45581e-006 -0.6151 -8.0947 -3.5641 4.60894e-006 -1.03229e-006 -2.06929e-006 -0.4882 -2.341 -0.6462 -0.0125306 0.00310612 0.00281361 -0.3575 -1.7167 -0.4742 8.14218e-006 -6.54311e-007 5.43909e-006 -1.42 -1.8761 1.4223 4.60894e-006 -1.03229e-006 -2.06929e-006 -1.1471 -3.4929 2.6334 -8.27351e-006 3.78385e-006 -1.12095e-006 -0.823 -2.3 1.6571 8.7506e-006 -2.22923e-006 3.46876e-006 -2.2603 21.606 7.4023 6.84089 -6.64183 15.3653 -13.5187 -1.1334 -5.0155 -68.8646 -68.1211 -71.1471 0.0994 -28.0499 -0.2431 45.2395 -11.0668 89.677 -0.0679 -23.3996 -0.1402 72.2484 -22.1217 -2.12766 -0.7932 -9.0691 2.5189 -5.73001e-006 3.27857e-006 4.08625e-006 0.8272 -3.3923 0.5977 4.77083e-015 6.36111e-015 -9.54166e-015 0.565 -2.3158 0.4082 -9.79756e-006 -4.14677e-006 -7.81133e-006 -0.916 -9.2044 0.2193 -5.73001e-006 3.27857e-006 4.08625e-006 -0.0117 -4.1944 -0.0248 0.0129136 0.00230657 -8.78255e-005 -0.0071 -2.3249 -0.0142 -1.65279e-006 1.19713e-006 2.79577e-006 -0.6113 -8.7231 -2.0637 -5.73001e-006 3.27857e-006 4.08625e-006 0.1927 -3.8059 -0.2383 0.0163449 0.00303487 -0.00088423 0.1091 -2.1688 -0.1362 -1.88387e-006 -1.55401e-006 -3.78935e-008 0.6151 -8.0947 -3.564 -5.73001e-006 3.27857e-006 4.08625e-006 0.4882 -2.341 -0.6462 0.0146129 0.00368291 -0.00327306 0.3574 -1.7166 -0.4742 -2.31999e-006 -1.58915e-006 -1.96103e-006 1.4199 -1.8761 1.4221 -5.73001e-006 3.27857e-006 4.08625e-006 1.1472 -3.4929 2.6336 4.77083e-015 6.36111e-015 -9.54166e-015 0.8229 -2.3 1.6571 -9.79756e-006 -4.14677e-006 -7.81133e-006 -9.412 3.9771 -0.7758 175.559 -83.4936 175.347 -0.7531 -40.938 7.10543e-015 -177.654 21.8693 169.451 3.55271e-015 -40.1986 3.55271e-015 12.7082 -28.0845 20.9109 0 -4.4182 9.239 -6.31607e-007 1.41425e-007 1.63312e-006 9.4119 3.9773 -0.7758 -175.424 -83.5185 -175.215 0.7532 -40.9383 0 177.667 21.8801 -169.464 0 -40.1986 -8.88179e-016 -12.7148 -28.0873 -20.9165 0 -4.4182 9.239 -3.31043e-032 7.95139e-016 2.38542e-015 
39.8401 13.9848 21.7275 -4.7816e-008 65.0489 1.10273e-006 0 8.7983 -4.7612 -0.327518 16.3231 -0.086793 0 8.0291 0.4195 -0.671842 32.6467 -0.0763925 -7.10543e-015 9.9351 -2.2114 -0.671837 32.6465 -0.076393 0 22.3885 -0.4656 -11.3548 -29.7609 40.5485 -0.0001 12.643 3.4389 15.1927 -18.5734 23.4517 2.2603 21.606 7.4023 -7.16101 -6.01569 -17.0897 13.5163 -1.1332 -5.0146 75.1335 -64.2339 76.8036 -0.0995 -28.05 -0.2431 -51.3699 -9.5799 -90.0705 0.0679 -23.3996 -0.1402 -71.9663 -22.5721 6.1832 0.7932 -9.069 2.5189 4.76673e-007 1.54827e-006 2.34846e-006 -0.8272 -3.3923 0.5977 1.18679e-006 8.54515e-007 8.93752e-007 -0.5649 -2.3158 0.4082 5.32012e-006 4.15045e-006 -3.52565e-006 0.9159 -9.2044 0.2193 4.76673e-007 1.54827e-006 2.34846e-006 0.0117 -4.1944 -0.0248 -0.0128192 0.00232477 8.40759e-005 0.0071 -2.3249 -0.0142 -6.27335e-006 2.99297e-006 -1.17151e-006 0.6113 -8.7231 -2.0637 4.76673e-007 1.54827e-006 2.34846e-006 -0.1927 -3.8059 -0.2383 -0.0160213 0.00299011 0.000856698 -0.1091 -2.1688 -0.1362 -1.59028e-015 2.66679e-006 -0 -0.6151 -8.0947 -3.5641 4.76673e-007 1.54827e-006 2.34846e-006 -0.4882 -2.341 -0.6462 -0.012546 0.00311726 0.00281712 -0.3575 -1.7167 -0.4742 9.07935e-025 -5.45197e-009 9.54166e-015 -1.42 -1.8761 1.4223 4.76673e-007 1.54827e-006 2.34846e-006 -1.1471 -3.4929 2.6334 1.18679e-006 8.54515e-007 8.93752e-007 -0.823 -2.3 1.6571 5.32012e-006 4.15045e-006 -3.52565e-006 -2.2603 21.606 7.4023 6.89394 -6.78858 15.1897 -13.5187 -1.1334 -5.0155 -68.8646 -68.1211 -71.1471 0.0994001 -28.0499 -0.2431 45.7325 -11.0957 89.7714 -0.0679 -23.3996 -0.1402 72.1713 -21.9719 -2.47964 -0.7932 -9.0691 2.5189 1.59028e-015 -3.18055e-015 3.18055e-015 0.8272 -3.3923 0.5977 1.59028e-015 -6.36111e-015 3.18055e-015 0.565 -2.3158 0.4082 -1.59028e-015 0 -0 -0.916 -9.2044 0.2193 1.59028e-015 -3.18055e-015 3.18055e-015 -0.0117 -4.1944 -0.0248 0.0129323 0.00231132 -8.31106e-005 -0.0071 -2.3249 -0.0142 -3.18055e-015 -6.36111e-015 6.36111e-015 -0.6113 -8.7231 -2.0637 1.59028e-015 -3.18055e-015 3.18055e-015 0.1927 -3.8059 -0.2383 0.0163042 0.00303143 -0.000872902 0.1091 -2.1688 -0.1362 6.36111e-015 1.27222e-014 -3.18055e-015 0.6151 -8.0947 -3.564 1.59028e-015 -3.18055e-015 3.18055e-015 0.4882 -2.341 -0.6462 0.0145893 0.00368404 -0.00326779 0.3574 -1.7166 -0.4742 -1.59028e-015 -1.27222e-014 3.18055e-015 1.4199 -1.8761 1.4221 1.59028e-015 -3.18055e-015 3.18055e-015 1.1472 -3.4929 2.6336 1.59028e-015 -6.36111e-015 3.18055e-015 0.8229 -2.3 1.6571 -1.59028e-015 0 -0 -9.412 3.9771 -0.7758 175.556 -83.4985 175.344 -0.7531 -40.938 -3.55271e-015 -177.654 21.8744 169.451 0 -40.1986 0 12.7081 -28.0843 20.9107 0 -4.4182 9.239 8.45171e-007 1.05993e-008 9.15506e-008 9.4119 3.9773 -0.7758 -175.422 -83.5211 -175.213 0.7532 -40.9383 3.55271e-015 177.667 21.883 -169.464 0 -40.1986 -8.88178e-016 -12.7146 -28.0871 -20.9163 -7.10543e-015 -4.4182 9.239 2.21941e-006 -7.2726e-006 1.12727e-006 
39.8401 13.9604 21.7131 4.33991e-007 64.8237 6.45833e-007 -7.10543e-015 8.7983 -4.7612 -0.327707 16.3982 -0.086246 7.10543e-015 8.0291 0.4195 -0.672735 32.7967 -0.074613 -1.42109e-014 9.9351 -2.2114 -0.672731 32.7965 -0.0746141 0 22.3885 -0.4656 -11.6185 -29.7873 40.4093 -0.0001 12.643 3.4389 15.0132 -18.3453 23.3313 2.2603 21.606 7.4023 -7.15369 -5.99791 -17.0885 13.5163 -1.1332 -5.0146 75.1335 -64.2339 76.8036 -0.0995 -28.05 -0.2431 -51.5583 -9.5816 -90.1055 0.0679 -23.3996 -0.1402 -71.8735 -22.4386 6.38912 0.7932 -9.069 2.5189 1.59028e-015 -3.18055e-015 -3.18055e-015 -0.8272 -3.3923 0.5977 -1.59028e-015 3.18055e-015 -0 -0.5649 -2.3158 0.4082 -3.18055e-015 -3.18055e-015 -3.18055e-015 0.9159 -9.2044 0.2193 1.59028e-015 -3.18055e-015 -3.18055e-015 0.0117 -4.1944 -0.0248 -0.0128429 0.00233349 8.59843e-005 0.0071 -2.3249 -0.0142 -3.18055e-015 0 -3.18055e-015 0.6113 -8.7231 -2.0637 1.59028e-015 -3.18055e-015 -3.18055e-015 -0.1927 -3.8059 -0.2383 -0.0160379 0.00299182 0.000853948 -0.1091 -2.1688 -0.1362 8.82781e-031 -1.59028e-014 3.18055e-015 -0.6151 -8.0947 -3.5641 1.59028e-015 -3.18055e-015 -3.18055e-015 -0.4882 -2.341 -0.6462 -0.0125487 0.00311137 0.00281388 -0.3575 -1.7167 -0.4742 -3.18055e-015 0 -3.18055e-015 -1.42 -1.8761 1.4223 1.59028e-015 -3.18055e-015 -3.18055e-015 -1.1471 -3.4929 2.6334 -1.59028e-015 3.18055e-015 -0 -0.823 -2.3 1.6571 -3.18055e-015 -3.18055e-015 -3.18055e-015 -2.2603 21.606 7.4023 6.94656 -6.93548 15.0141 -13.5187 -1.1334 -5.0155 -68.8647 -68.1214 -71.1472 0.0994 -28.0499 -0.2431 46.2254 -11.1239 89.8661 -0.0679 -23.3996 -0.1402 72.0953 -21.8218 -2.83101 -0.7932 -9.0691 2.5189 6.29656e-006 5.22693e-006 4.86665e-006 0.8272 -3.3923 0.5977 -1.19859e-005 -4.2272e-006 -1.02319e-005 0.565 -2.3158 0.4082 1.59028e-015 -6.36111e-015 6.36111e-015 -0.916 -9.2044 0.2193 6.29656e-006 5.22693e-006 4.86665e-006 -0.0117 -4.1944 -0.0248 0.0129898 0.00232009 -9.55572e-005 -0.0071 -2.3249 -0.0142 -3.18055e-015 0 -0 -0.6113 -8.7231 -2.0637 6.29656e-006 5.22693e-006 4.86665e-006 0.1927 -3.8059 -0.2383 0.0163422 0.00302966 -0.000875846 0.1091 -2.1688 -0.1362 7.95139e-015 3.18055e-015 6.36111e-015 0.6151 -8.0947 -3.564 6.29656e-006 5.22693e-006 4.86665e-006 0.4882 -2.341 -0.6462 0.0145546 0.00366766 -0.00326126 0.3574 -1.7166 -0.4742 -1.59028e-015 -9.54166e-015 3.18055e-015 1.4199 -1.8761 1.4221 6.29656e-006 5.22693e-006 4.86665e-006 1.1472 -3.4929 2.6336 -1.19859e-005 -4.2272e-006 -1.02319e-005 0.8229 -2.3 1.6571 1.59028e-015 -6.36111e-015 6.36111e-015 -9.412 3.9771 -0.7758 175.554 -83.5016 175.342 -0.7531 -40.938 7.10543e-015 -177.654 21.8776 169.45 -3.55271e-015 -40.1986 0 12.7079 -28.0841 20.9105 0 -4.4182 9.239 3.2481e-007 -3.592e-007 8.85114e-007 9.4119 3.9773 -0.7758 -175.418 -83.5268 -175.209 0.7532 -40.9383 0 177.666 21.8889 -169.463 0 -40.1986 3.55271e-015 -12.7144 -28.0869 -20.916 0 -4.4182 9.239 1.5929e-006 -7.98635e-008 1.01774e-006 
39.8401 13.936 21.6989 -1.59562e-009 64.5987 1.05388e-006 0 8.7983 -4.7612 -0.327896 16.4732 -0.0856992 0 8.0291 0.4195 -0.673636 32.9467 -0.0728295 0 9.9351 -2.2114 -0.673631 32.9465 -0.0728304 0 22.3885 -0.4656 -11.8824 -29.8131 40.27 -0.0001 12.643 3.4389 14.8344 -18.1168 23.2119 2.2603 21.606 7.4023 -7.14637 -5.98018 -17.0873 13.5163 -1.1332 -5.0146 75.1335 -64.2339 76.8036 -0.0995 -28.05 -0.2431 -51.7467 -9.58319 -90.1403 0.0679 -23.3996 -0.1402 -71.7813 -22.3048 6.59451 0.7932 -9.069 2.5189 8.75816e-006 -4.34064e-006 3.45577e-006 -0.8272 -3.3923 0.5977 3.18055e-015 -3.18055e-015 -0 -0.5649 -2.3158 0.4082 6.36111e-015 -9.54166e-015 -0 0.9159 -9.2044 0.2193 8.75816e-006 -4.34064e-006 3.45577e-006 0.0117 -4.1944 -0.0248 -0.0128126 0.00232845 8.1588e-005 0.0071 -2.3249 -0.0142 -3.18055e-015 3.18055e-015 -3.18055e-015 0.6113 -8.7231 -2.0637 8.75816e-006 -4.34064e-006 3.45577e-006 -0.1927 -3.8059 -0.2383 -0.0160621 0.00299354 0.000853984 -0.1091 -2.1688 -0.1362 0 1.33548e-006 -0 -0.6151 -8.0947 -3.5641 8.75816e-006 -4.34064e-006 3.45577e-006 -0.4882 -2.341 -0.6462 -0.0126117 0.00313115 0.00282119 -0.3575 -1.7167 -0.4742 -9.54166e-015 -3.18055e-015 3.18055e-015 -1.42 -1.8761 1.4223 8.75816e-006 -4.34064e-006 3.45577e-006 -1.1471 -3.4929 2.6334 3.18055e-015 -3.18055e-015 -0 -0.823 -2.3 1.6571 6.36111e-015 -9.54166e-015 -0 -2.2603 21.606 7.4023 6.99873 -7.08258 14.8386 -13.5187 -1.1334 -5.0155 -68.8647 -68.1211 -71.1471 0.0994 -28.0499 -0.2431 46.7188 -11.1515 89.961 -0.0679 -23.3996 -0.1402 72.0203 -21.6711 -3.18176 -0.7932 -9.0691 2.5189 -1.15427e-005 -2.18281e-006 -4.5846e-006 0.8272 -3.3923 0.5977 -8.17761e-006 4.9413e-007 -1.18489e-006 0.565 -2.3158 0.4082 -1.87604e-006 -1.90447e-006 -3.52359e-008 -0.916 -9.2044 0.2193 -1.15427e-005 -2.18281e-006 -4.5846e-006 -0.0117 -4.1944 -0.0248 0.012967 0.00231707 -8.639e-005 -0.0071 -2.3249 -0.0142 -7.89055e-006 -1.91526e-006 -7.78455e-006 -0.6113 -8.7231 -2.0637 -1.15427e-005 -2.18281e-006 -4.5846e-006 0.1927 -3.8059 -0.2383 0.0163911 0.00304205 -0.000869703 0.1091 -2.1688 -0.1362 -8.83501e-006 1.15346e-006 -5.94468e-006 0.6151 -8.0947 -3.564 -1.15427e-005 -2.18281e-006 -4.5846e-006 0.4882 -2.341 -0.6462 0.0145439 0.00366796 -0.00325207 0.3574 -1.7166 -0.4742 4.77083e-015 -3.18055e-015 6.36111e-015 1.4199 -1.8761 1.4221 -1.15427e-005 -2.18281e-006 -4.5846e-006 1.1472 -3.4929 2.6336 -8.17761e-006 4.9413e-007 -1.18489e-006 0.8229 -2.3 1.6571 -1.87604e-006 -1.90447e-006 -3.52359e-008 -9.412 3.9771 -0.7758 175.552 -83.5052 175.339 -0.7531 -40.938 0 -177.654 21.8815 169.45 0 -40.1986 0 12.7077 -28.0839 20.9103 0 -4.4182 9.239 -1.17426e-006 3.61413e-007 -9.68744e-007 9.4119 3.9773 -0.7758 -175.416 -83.5306 -175.206 0.7532 -40.9383 0 177.666 21.8928 -169.463 -7.10543e-015 -40.1986 1.77636e-015 -12.7143 -28.0869 -20.9159 7.10543e-015 -4.4182 9.239 6.12619e-007 1.25808e-007 -1.64004e-006 
